<svg xmlns="http://www.w3.org/2000/svg" id="Layer_1" data-name="Layer 1" viewBox="0 0 208 44">
  <defs>
    <style>
      .cls-1 {
        fill: #38b04c;
      }

      .cls-2 {
        fill: #26306b;
      }
    </style>
  </defs>
  <path class="cls-2" d="m53.05,10.9c.11-.09.18-.19.2-.31l.53-2.32c.03-.12,0-.22-.06-.31-.07-.09-.17-.13-.31-.13h-7.07c-.12,0-.23.04-.32.13-.1.09-.16.19-.19.31l-.53,2.32c-.03.12-.01.22.05.31.06.09.15.13.26.13h7.07c.14,0,.26-.04.37-.13Z"/>
  <path class="cls-2" d="m66.69,10.9c.1-.09.16-.19.19-.31l.53-2.32c.03-.12.01-.22-.05-.31-.06-.09-.15-.13-.26-.13h-7.45c-.96,0-1.86.34-2.71,1.03-.85.68-1.39,1.52-1.61,2.49l-3.34,14.64c-.03.14-.02.25.04.34.06.09.15.13.26.13h2.35c.12,0,.23-.04.32-.13.1-.09.16-.2.19-.34l3.31-14.5c.03-.14.1-.25.21-.34.11-.09.21-.13.31-.13h7.4c.12,0,.23-.04.32-.13Z"/>
  <path class="cls-2" d="m84.22,23.27h-15.58c-.12,0-.21-.04-.26-.13-.06-.09-.07-.19-.05-.31l.79-3.32c.05-.22.16-.4.34-.54.18-.15.38-.22.59-.22h9.86c.16,0,.31-.05.45-.16s.23-.24.27-.4c.05-.21.1-.43.15-.66.05-.22.11-.47.17-.75.06-.27.12-.49.18-.65.04-.16,0-.29-.09-.4-.09-.11-.22-.16-.37-.16h-10.04c-1.06,0-2.05.37-2.97,1.11-.92.74-1.51,1.65-1.75,2.73l-1.5,6.57c-.03.14-.02.25.04.34.06.09.15.13.26.13h18.75c.16,0,.3-.05.43-.16.13-.11.23-.25.29-.43l.46-2.02c.05-.16.04-.29-.05-.41-.09-.12-.21-.18-.37-.18Z"/>
  <path class="cls-2" d="m68.31,11.03h18.84c.16,0,.3-.05.43-.16.13-.11.22-.24.25-.4.23-.92.39-1.6.5-2.05.04-.16,0-.29-.08-.41-.09-.12-.21-.18-.37-.18h-18.84c-.14,0-.27.05-.39.15-.12.1-.2.22-.23.35l-.5,2.2c-.03.14,0,.25.07.35.08.1.18.15.32.15Z"/>
  <path class="cls-2" d="m103.39,23.27h-10.3c-1.55,0-2.73-.6-3.55-1.79-.82-1.19-1.04-2.63-.66-4.31.39-1.7,1.25-3.15,2.58-4.34,1.33-1.19,2.8-1.79,4.43-1.79h10.3c.12,0,.23-.04.32-.13.1-.09.16-.19.19-.31l.52-2.29c.03-.14.02-.25-.04-.34-.06-.09-.15-.13-.26-.13h-10.59c-2.35,0-4.56.91-6.63,2.71-2.08,1.81-3.41,4-3.99,6.56l-.02.09c-.58,2.56-.25,4.75,1,6.56,1.25,1.81,3.05,2.71,5.4,2.71h10.59c.12,0,.23-.04.32-.13.1-.09.16-.2.19-.34l.52-2.26c.03-.12.01-.22-.04-.32-.06-.1-.14-.15-.26-.15Z"/>
  <path class="cls-1" d="m151.09,14.79c.47-2.07.4-3.74-.22-5-.62-1.26-1.64-1.89-3.05-1.89h-14.59c-.12,0-.23.04-.32.13-.1.09-.16.2-.19.34l-4.04,17.7c-.03.14-.02.25.04.34.06.09.15.13.26.13h2.38c.12,0,.23-.04.32-.13.1-.09.16-.2.19-.34l.9-3.93c.03-.14.1-.25.19-.34.1-.09.21-.13.32-.13l11.12.03c.8,0,1.56-.18,2.28-.54.72-.36,1.31-.8,1.78-1.32.47-.52.9-1.11,1.29-1.78.39-.67.68-1.26.88-1.79.2-.53.35-1.02.45-1.47Zm-3.14,0c-.07.31-.18.66-.32,1.03-.14.37-.34.77-.58,1.19-.24.42-.55.77-.92,1.06-.37.28-.76.43-1.17.43h-10.95c-.12,0-.21-.04-.26-.13-.06-.09-.07-.2-.04-.34l1.47-6.46c.03-.14.1-.25.19-.34.1-.09.21-.13.32-.13h11.09c.65,0,1.06.33,1.25,1,.19.67.16,1.57-.1,2.7Z"/>
  <path class="cls-1" d="m168.27,7.86h-14.59c-.12,0-.23.04-.32.13-.1.09-.16.19-.19.31l-.51,2.23c-.04.16-.02.28.06.38.08.1.19.15.35.15h14.17c.65,0,1.06.33,1.25,1,.19.67.16,1.57-.1,2.7-.07.31-.18.65-.32,1.01-.14.36-.33.76-.58,1.19-.24.43-.55.78-.92,1.06-.37.27-.75.41-1.16.41h-11.21c-.94,0-1.81.33-2.6.98-.8.66-1.3,1.44-1.51,2.36l-.97,4.26c-.03.14-.02.25.04.34.06.09.15.13.26.13h2.38c.12,0,.22-.04.32-.13.1-.09.16-.2.19-.34l.9-3.93c.03-.14.1-.25.19-.34.1-.09.21-.13.32-.13h6.81c.28.04.49.15.63.32l2.94,4.11c.21.27.49.41.85.41h3.26c.14,0,.24-.06.32-.19.08-.13.08-.24,0-.34l-2.81-4.14c-.07-.12-.02-.21.15-.26.82-.18,1.59-.54,2.31-1.1.71-.56,1.29-1.2,1.73-1.92.44-.72.79-1.4,1.05-2.02.26-.63.45-1.2.57-1.73.47-2.07.4-3.74-.22-5s-1.64-1.89-3.05-1.89Z"/>
  <path class="cls-1" d="m193.13,10.36c-1.47-1.7-3.56-2.55-6.26-2.55h-2.41c-2.71,0-5.23.85-7.57,2.55-2.34,1.7-3.82,3.75-4.43,6.13l-.34,1.32c-.61,2.39-.18,4.43,1.28,6.13,1.47,1.7,3.56,2.55,6.26,2.55h2.41c2.71,0,5.23-.85,7.57-2.55,2.34-1.7,3.82-3.75,4.43-6.13l.34-1.32c.61-2.39.18-4.43-1.28-6.13Zm-2.49,6.69l-.08.32c-.45,1.74-1.48,3.23-3.11,4.46-1.63,1.23-3.36,1.85-5.21,1.85h-1.29c-1.87,0-3.3-.62-4.3-1.85s-1.27-2.72-.82-4.46l.08-.32c.45-1.74,1.48-3.23,3.11-4.46,1.63-1.23,3.37-1.85,5.25-1.85h1.29c1.85,0,3.27.62,4.26,1.85s1.27,2.72.82,4.46Z"/>
  <path class="cls-2" d="m128.63,7.97c-.06-.09-.15-.13-.26-.13h-2.38c-.12,0-.23.04-.32.13-.1.09-.16.2-.19.34l-1.66,7.28h-8.83c-1.12,0-2.16.33-3.11.99-.8.56-1.45,1.17-1.76,1.91l.65-2.89h0l1.66-7.28c.03-.14.02-.25-.04-.34-.06-.09-.15-.13-.26-.13h-2.38c-.12,0-.23.04-.32.13-.1.09-.16.2-.19.34l-4.04,17.7c-.03.14-.02.25.04.34.06.09.15.13.26.13h2.38c.12,0,.23-.04.32-.13.1-.09.16-.2.19-.34l1.69-7.41h.02s3.84,0,3.84,0h1.01s0,0,0,0h8.19l-1.69,7.41c-.03.14-.02.25.04.34.06.09.15.13.26.13h2.38c.12,0,.23-.04.32-.13.1-.09.16-.2.19-.34l4.04-17.7c.03-.14.02-.25-.04-.34Z"/>
  <g>
    <path class="cls-2" d="m72.17,33.31c.02-.11.11-.18.22-.18h6.09c.11,0,.17.07.15.18l-.26,1.2c-.02.11-.11.18-.22.18h-4.17c-.24,0-.43.15-.48.39l-.38,1.76c-.05.24.07.39.31.39h3.14c.11,0,.17.07.15.18l-.26,1.2c-.02.11-.11.18-.22.18h-3.14c-.24,0-.43.15-.48.39l-.38,1.76c-.05.24.07.39.31.39h4.17c.11,0,.17.07.15.18l-.26,1.2c-.02.11-.11.18-.22.18h-6.09c-.11,0-.17-.07-.15-.18l2.04-9.42Z"/>
    <path class="cls-2" d="m82.17,33.12h2.37c.39,0,.66,0,.81.01,3.08.21,4.15,2.54,3.64,4.88s-2.57,4.6-5.75,4.88c-.16.01-.43.01-.82.01h-2.37c-.11,0-.17-.07-.15-.18l2.04-9.42c.02-.11.11-.18.22-.18Zm-.16,7.81c-.05.24.07.39.31.39h.37c.41,0,.66,0,.82-.01,4.18-.39,5.42-6.62,1.02-6.62h-.77c-.24,0-.43.15-.48.39l-1.27,5.85Z"/>
    <path class="cls-2" d="m95.12,43.24c-2.01,0-3.75-1.36-3.16-4.05l1.27-5.88c.02-.11.11-.18.22-.18h1.34c.11,0,.17.07.15.18l-1.27,5.88c-.33,1.52.68,2.28,1.83,2.28s2.49-.75,2.82-2.28l1.27-5.88c.02-.11.11-.18.22-.18h1.34c.1,0,.17.07.15.18l-1.27,5.88c-.58,2.7-2.89,4.05-4.92,4.05Z"/>
    <path class="cls-2" d="m109.78,32.92c1,0,1.87.39,2.64.88.09.06.06.17-.01.25l-1,1.08c-.09.1-.18.11-.27.04-.36-.31-.94-.59-1.7-.59-4.5,0-5.98,6.87-1.49,6.87.93,0,1.56-.28,1.96-.56.1-.07.2-.06.24.03l.56,1.06c.04.08,0,.2-.1.25-.9.59-1.79.88-3.03.88-3.44,0-4.6-2.56-4.05-5.1s2.82-5.1,6.26-5.1Z"/>
    <path class="cls-2" d="m113.59,42.74l6.59-9.63c.04-.07.16-.13.24-.13s.16.06.17.13l2.43,9.63c.02.1-.04.17-.15.17h-1.4c-.11,0-.21-.07-.23-.17l-.22-.85c-.05-.21-.25-.35-.5-.35h-3.93c-.24,0-.5.14-.65.35l-.58.85c-.06.1-.19.17-.29.17h-1.41c-.11,0-.14-.07-.08-.17Zm4.1-2.77h2.45c.24,0,.36-.14.31-.36l-.69-2.74c-.03-.11-.08-.17-.13-.17s-.13.06-.21.17l-1.89,2.74c-.15.22-.08.36.16.36Z"/>
    <path class="cls-2" d="m125.84,34.51l.26-1.2c.02-.11.11-.18.22-.18h7.85c.11,0,.17.07.15.18l-.26,1.2c-.02.11-.11.18-.22.18h-2.67c-.24,0-.45.15-.5.39l-1.65,7.64c-.02.11-.11.18-.22.18h-1.34c-.1,0-.17-.07-.15-.18l1.65-7.64c.05-.24-.07-.39-.31-.39h-2.65c-.11,0-.17-.07-.15-.18Z"/>
    <path class="cls-2" d="m137.58,33.12h1.34c.11,0,.17.07.15.18l-2.04,9.42c-.02.11-.11.18-.22.18h-1.34c-.11,0-.17-.07-.15-.18l2.04-9.42c.02-.11.11-.18.22-.18Z"/>
    <path class="cls-2" d="m147.67,32.9c2.57,0,4.77,1.7,4.03,5.11-.74,3.41-3.68,5.11-6.25,5.11s-4.78-1.7-4.05-5.11,3.68-5.11,6.26-5.11Zm-1.85,8.54c1.73,0,3.71-1.13,4.21-3.42.5-2.29-1-3.42-2.73-3.42s-3.71,1.13-4.21,3.42.99,3.42,2.73,3.42Z"/>
    <path class="cls-2" d="m156.09,33.31c.02-.11.11-.18.22-.18h.21c.1,0,.22.06.27.13l4.22,5.74c.06.07.09.1.15.1s.12-.07.15-.21l1.21-5.57c.02-.11.11-.18.22-.18h1.34c.11,0,.17.07.15.18l-2.04,9.42c-.02.11-.11.18-.22.18h-.2c-.11,0-.23-.06-.28-.14l-4.22-5.76c-.04-.07-.09-.1-.15-.1s-.12.07-.15.21l-1.21,5.6c-.02.11-.11.18-.22.18h-1.34c-.11,0-.17-.07-.15-.18l2.04-9.42Z"/>
  </g>
  <path class="cls-1" d="m39.18,12.2l-3.23,3.72c-.45.52-.65,1.22-.56,1.9.02.15.04.31.05.47.72,7.58-4.98,14.28-12.65,14.72-6.97.4-13.17-4.72-14.1-11.65-1.02-7.61,4.49-14.48,12.07-15.2,3.42-.33,6.66.66,9.23,2.54.98.71,2.32.65,3.24-.14l2.25-1.92C31.58,2.64,25.94.42,19.93,1.13,10.23,2.29,3.01,10.93,3.61,20.68c.67,10.92,10.56,18.92,21.44,17.21,9.29-1.46,16.07-9.79,15.62-19.19-.11-2.32-.64-4.5-1.5-6.5Z"/>
  <path class="cls-1" d="m42.58,4.27l-18.83,13.44c-.94.67-2.17.78-3.22.28l-5.99-2.86c-.35-.16-.69.23-.47.56l7.16,10.89c.49.75,1.55.83,2.14.16L42.95,4.69c.22-.25-.1-.61-.37-.42Z"/>
</svg>